Control Set_states
version=1
nRows=24
nColumns=17
inDegrees=yes

# SIMM Motion File Header:
name Control Set_states
datacolumns 17
datarows 24
otherdata 1
range 0.53474505 0.72270061
endheader
time	/jointset/r_shoulder/r_shoulder_elev/value	/jointset/r_shoulder/r_shoulder_elev/speed	/jointset/r_elbow/r_elbow_flex/value	/jointset/r_elbow/r_elbow_flex/speed	/forceset/TRIlong/activation	/forceset/TRIlong/fiber_length	/forceset/TRIlat/activation	/forceset/TRIlat/fiber_length	/forceset/TRImed/activation	/forceset/TRImed/fiber_length	/forceset/BIClong/activation	/forceset/BIClong/fiber_length	/forceset/BICshort/activation	/forceset/BICshort/fiber_length	/forceset/BRA/activation	/forceset/BRA/fiber_length
      0.53474505	      0.63506948	     19.99680361	     22.98111687	    -41.27132197	     -0.04340634	      0.14609112	     -0.04340634	      0.07964421	     -0.04340634	      0.07463583	     -0.04340634	      0.14244659	     -0.04340634	      0.14172933	     -0.04340634	      0.08790286
      0.54178612	      0.77068275	     18.51693257	     22.69742368	    -39.29428779	     -0.04431288	      0.14606211	     -0.04431288	      0.07952591	     -0.04431288	      0.07451818	     -0.04431288	      0.14250360	     -0.04431288	      0.14182320	     -0.04431288	      0.08796934
      0.54882719	      0.89574426	     17.00104503	     22.42796698	    -37.23120454	     -0.04521941	      0.14603225	     -0.04521941	      0.07941336	     -0.04521941	      0.07440625	     -0.04521941	      0.14255845	     -0.04521941	      0.14191263	     -0.04521941	      0.08803233
      0.55586826	      1.01001866	     15.45348775	     22.17331016	    -35.09168790	     -0.04612595	      0.14600162	     -0.04612595	      0.07930682	     -0.04612595	      0.07430035	     -0.04612595	      0.14261108	     -0.04612595	      0.14199745	     -0.04612595	      0.08809237
      0.56290933	      1.11330616	     13.88148456	     21.93393466	    -32.89367537	     -0.04703249	      0.14597028	     -0.04703249	      0.07920648	     -0.04703249	      0.07420062	     -0.04703249	      0.14266151	     -0.04703249	      0.14207755	     -0.04703249	      0.08814873
      0.57206821	      1.23097206	     11.80822892	     21.64602182	    -29.96541493	     -0.04821169	      0.14592855	     -0.04821169	      0.07908552	     -0.04821169	      0.07408047	     -0.04821169	      0.14272387	     -0.04821169	      0.14217455	     -0.04821169	      0.08821705
      0.58122710	      1.32955063	      9.71619558	     21.38516951	    -26.99140014	     -0.04939090	      0.14588581	     -0.04939090	      0.07897556	     -0.04939090	      0.07397115	     -0.04939090	      0.14278247	     -0.04939090	      0.14226331	     -0.04939090	      0.08827893
      0.59038598	      1.40892465	      7.61609723	     21.15167172	    -23.99525574	     -0.05057011	      0.14584210	     -0.05057011	      0.07887683	     -0.05057011	      0.07387350	     -0.05057011	      0.14283756	     -0.05057011	      0.14234380	     -0.05057011	      0.08833521
      0.59954487	      1.46908114	      5.52144123	     20.94558822	    -21.00875588	     -0.05174931	      0.14579743	     -0.05174931	      0.07878921	     -0.05174931	      0.07378563	     -0.05174931	      0.14288923	     -0.05174931	      0.14241610	     -0.05174931	      0.08838449
      0.60547852	      1.49783893	      4.17313284	     20.82662402	    -19.09245934	     -0.05251327	      0.14576798	     -0.05251327	      0.07873846	     -0.05251327	      0.07373604	     -0.05251327	      0.14292095	     -0.05251327	      0.14245863	     -0.05251327	      0.08841356
      0.61141217	      1.51862307	      2.83432882	     20.71897532	    -17.19583904	     -0.05327723	      0.14573811	     -0.05327723	      0.07869233	     -0.05327723	      0.07369027	     -0.05327723	      0.14295138	     -0.05327723	      0.14249782	     -0.05327723	      0.08843986
      0.62416182	      1.53664599	      0.00565858	     20.52523365	    -13.22331416	     -0.05491875	      0.14567241	     -0.05491875	      0.07860868	     -0.05491875	      0.07360748	     -0.05491875	      0.14301274	     -0.05491875	      0.14257107	     -0.05491875	      0.08848763
      0.63279880	      1.52859093	     -1.86373474	     20.42228222	    -10.63151229	     -0.05603076	      0.14562671	     -0.05603076	      0.07856355	     -0.05603076	      0.07356275	     -0.05603076	      0.14305112	     -0.05603076	      0.14261249	     -0.05603076	      0.08851363
      0.64143578	      1.50459089	     -3.68514531	     20.34129044	     -8.14136726	     -0.05714277	      0.14557982	     -0.05714277	      0.07852756	     -0.05714277	      0.07352737	     -0.05714277	      0.14308747	     -0.05714277	      0.14264762	     -0.05714277	      0.08853446
      0.65007276	      1.46508670	     -5.45306152	     20.28133112	     -5.76262849	     -0.05825478	      0.14553182	     -0.05825478	      0.07850023	     -0.05825478	      0.07350033	     -0.05825478	      0.14312183	     -0.05825478	      0.14267677	     -0.05825478	      0.08855042
      0.65994539	      1.40157256	     -7.39963096	     20.23724688	     -3.19678898	     -0.05952588	      0.14547523	     -0.05952588	      0.07847913	     -0.05952588	      0.07347985	     -0.05952588	      0.14315897	     -0.05952588	      0.14270321	     -0.05952588	      0.08856296
      0.66981802	      1.31925895	     -9.26073560	     20.21764549	     -0.80365041	     -0.06079698	      0.14541702	     -0.06079698	      0.07846819	     -0.06079698	      0.07346900	     -0.06079698	      0.14319413	     -0.06079698	      0.14272284	     -0.06079698	      0.08856979
      0.67969064	      1.21902467	    -11.02848993	     20.22076773	      1.40429675	     -0.06206808	      0.14535628	     -0.06206808	      0.07846647	     -0.06206808	      0.07346780	     -0.06206808	      0.14322760	     -0.06206808	      0.14273622	     -0.06206808	      0.08857109
      0.68618085	      1.14383051	    -12.13561391	     20.23428470	      2.74639574	     -0.06290370	      0.14531570	     -0.06290370	      0.07846924	     -0.06290370	      0.07347077	     -0.06290370	      0.14324885	     -0.06290370	      0.14274190	     -0.06290370	      0.08856889
      0.69267106	      1.06160352	    -13.19520230	     20.25620974	      3.99424679	     -0.06373931	      0.14527383	     -0.06373931	      0.07847531	     -0.06373931	      0.07347712	     -0.06373931	      0.14326959	     -0.06373931	      0.14274532	     -0.06373931	      0.08856432
      0.70145229	      0.93970725	    -14.55343005	     20.29817736	      5.53733885	     -0.06486989	      0.14521556	     -0.06486989	      0.07848887	     -0.06486989	      0.07349106	     -0.06486989	      0.14329704	     -0.06486989	      0.14274661	     -0.06486989	      0.08855540
      0.71023352	      0.80626043	    -15.82599064	     20.35299568	      6.92234898	     -0.06600048	      0.14515529	     -0.06600048	      0.07850818	     -0.06600048	      0.07351068	     -0.06600048	      0.14332397	     -0.06600048	      0.14274369	     -0.06600048	      0.08854310
      0.71646707	      0.70492428	    -16.68043465	     20.39898542	      7.82199551	     -0.06680305	      0.14511126	     -0.06680305	      0.07852506	     -0.06680305	      0.07352775	     -0.06680305	      0.14334288	     -0.06680305	      0.14273956	     -0.06680305	      0.08853305
      0.72270061	      0.59839016	    -17.49371684	     20.45036848	      8.65305962	     -0.06760562	      0.14506617	     -0.06760562	      0.07854435	     -0.06760562	      0.07354718	     -0.06760562	      0.14336168	     -0.06760562	      0.14273415	     -0.06760562	      0.08852143
